<svg width="57" height="56" viewBox="0 0 57 56" fill="none" xmlns="http://www.w3.org/2000/svg">
<rect x="0.5" width="56" height="56" rx="28" fill="#F2F5F6" fill-opacity="0.16"/>
<g clip-path="url(#clip0_1_388)">
<path d="M16.6216 13H40.3783C40.6413 13 40.9005 13.0622 41.1349 13.1815C41.3692 13.3008 41.572 13.474 41.7266 13.6867L48.0983 22.4467C48.2116 22.6025 48.2673 22.7928 48.2561 22.9852C48.2449 23.1775 48.1673 23.3601 48.0366 23.5017L29.1116 44.0033C28.9617 44.1654 28.7536 44.2613 28.533 44.2701C28.3123 44.2788 28.0973 44.1997 27.935 44.05C27.9233 44.04 21.6016 37.1917 8.96331 23.5017C8.83265 23.3601 8.7551 23.1775 8.74385 22.9852C8.73261 22.7928 8.78837 22.6025 8.90164 22.4467L15.2733 13.6867C15.4279 13.474 15.6307 13.3008 15.8651 13.1815C16.0994 13.0622 16.3587 13 16.6216 13ZM17.4716 16.3333L12.805 22.75L28.5 39.75L44.195 22.75L39.5283 16.3333H17.4716Z" fill="white"/>
</g>
<defs>
<clipPath id="clip0_1_388">
<rect width="40" height="40" fill="white" transform="translate(8.5 8)"/>
</clipPath>
</defs>
</svg>
