<svg width="72" height="72" viewBox="0 0 72 72" fill="none" xmlns="http://www.w3.org/2000/svg">
<rect width="72" height="72" rx="36" fill="#F2F5F6" fill-opacity="0.16"/>
<g clip-path="url(#clip0_1_439)">
<path d="M21.82 29.4417L23.9633 47.6667H48.0367L50.18 29.4417L43.4967 33.8967L36 23.4017L28.5033 33.8967L21.82 29.4417ZM20.6683 24.6667L27.6667 29.3334L34.6433 19.5667C34.7975 19.3507 35.0011 19.1746 35.237 19.0531C35.473 18.9316 35.7346 18.8682 36 18.8682C36.2654 18.8682 36.527 18.9316 36.763 19.0531C36.999 19.1746 37.2025 19.3507 37.3567 19.5667L44.3333 29.3334L51.3333 24.6667C51.5983 24.4905 51.9081 24.3937 52.2263 24.3879C52.5444 24.3822 52.8576 24.4676 53.1287 24.6341C53.3999 24.8006 53.6177 25.0413 53.7564 25.3276C53.8952 25.614 53.949 25.9341 53.9117 26.2501L51.1733 49.5284C51.1256 49.9338 50.9307 50.3076 50.6256 50.5789C50.3206 50.8501 49.9266 51 49.5183 51.0001H22.4817C22.0735 51 21.6795 50.8501 21.3744 50.5789C21.0693 50.3076 20.8744 49.9338 20.8267 49.5284L18.0883 26.2484C18.0513 25.9325 18.1055 25.6127 18.2444 25.3266C18.3833 25.0405 18.6011 24.8001 18.8722 24.6338C19.1433 24.4675 19.4563 24.3823 19.7742 24.3881C20.0922 24.3939 20.4019 24.4906 20.6667 24.6667H20.6683ZM36 41.0001C35.116 41.0001 34.2681 40.6489 33.643 40.0237C33.0179 39.3986 32.6667 38.5508 32.6667 37.6667C32.6667 36.7827 33.0179 35.9348 33.643 35.3097C34.2681 34.6846 35.116 34.3334 36 34.3334C36.8841 34.3334 37.7319 34.6846 38.357 35.3097C38.9822 35.9348 39.3333 36.7827 39.3333 37.6667C39.3333 38.5508 38.9822 39.3986 38.357 40.0237C37.7319 40.6489 36.8841 41.0001 36 41.0001Z" fill="white"/>
</g>
<defs>
<clipPath id="clip0_1_439">
<rect width="40" height="40" fill="white" transform="translate(16 16)"/>
</clipPath>
</defs>
</svg>
