<svg width="40" height="41" viewBox="0 0 40 41" fill="none" xmlns="http://www.w3.org/2000/svg">
<g clip-path="url(#clip0_1_549)">
<path d="M18.3334 3.56579C26.6134 3.56579 33.3334 10.2858 33.3334 18.5658C33.3334 26.8458 26.6134 33.5658 18.3334 33.5658C10.0534 33.5658 3.33337 26.8458 3.33337 18.5658C3.33337 10.2858 10.0534 3.56579 18.3334 3.56579ZM18.3334 30.2325C24.7784 30.2325 30 25.0108 30 18.5658C30 12.1191 24.7784 6.89912 18.3334 6.89912C11.8867 6.89912 6.66671 12.1191 6.66671 18.5658C6.66671 25.0108 11.8867 30.2325 18.3334 30.2325ZM32.475 30.3508L37.19 35.0641L34.8317 37.4225L30.1184 32.7075L32.475 30.3508V30.3508Z" fill="white"/>
</g>
<defs>
<clipPath id="clip0_1_549">
<rect width="40" height="40" fill="white" transform="translate(0 0.232452)"/>
</clipPath>
</defs>
</svg>
