<svg width="72" height="73" viewBox="0 0 72 73" fill="none" xmlns="http://www.w3.org/2000/svg">
<rect y="0.232452" width="72" height="72" rx="36" fill="white" fill-opacity="0.16"/>
<g clip-path="url(#clip0_1_548)">
<path d="M34.3334 19.5658C42.6134 19.5658 49.3334 26.2858 49.3334 34.5658C49.3334 42.8458 42.6134 49.5658 34.3334 49.5658C26.0534 49.5658 19.3334 42.8458 19.3334 34.5658C19.3334 26.2858 26.0534 19.5658 34.3334 19.5658ZM34.3334 46.2325C40.7784 46.2325 46 41.0108 46 34.5658C46 28.1191 40.7784 22.8991 34.3334 22.8991C27.8867 22.8991 22.6667 28.1191 22.6667 34.5658C22.6667 41.0108 27.8867 46.2325 34.3334 46.2325ZM48.475 46.3508L53.19 51.0641L50.8317 53.4225L46.1184 48.7075L48.475 46.3508V46.3508Z" fill="white"/>
</g>
<defs>
<clipPath id="clip0_1_548">
<rect width="40" height="40" fill="white" transform="translate(16 16.2325)"/>
</clipPath>
</defs>
</svg>
